<svg xmlns="http://www.w3.org/2000/svg" xmlns:xlink="http://www.w3.org/1999/xlink" width="48" height="50" viewBox="0 0 48 50">
  <metadata><?xpacket begin="﻿" id="W5M0MpCehiHzreSzNTczkc9d"?>
<x:xmpmeta xmlns:x="adobe:ns:meta/" x:xmptk="Adobe XMP Core 5.6-c142 79.160924, 2017/07/13-01:06:39        ">
   <rdf:RDF xmlns:rdf="http://www.w3.org/1999/02/22-rdf-syntax-ns#">
      <rdf:Description rdf:about=""/>
   </rdf:RDF>
</x:xmpmeta>
                                                                                                    
                                                                                                    
                                                                                                    
                                                                                                    
                                                                                                    
                                                                                                    
                                                                                                    
                                                                                                    
                                                                                                    
                                                                                                    
                                                                                                    
                                                                                                    
                                                                                                    
                                                                                                    
                                                                                                    
                                                                                                    
                                                                                                    
                                                                                                    
                                                                                                    
                                                                                                    
                           
<?xpacket end="w"?></metadata>
<defs>
    <style>
      .cls-1 {
        fill: #8038c2;
        fill-rule: evenodd;
        filter: url(#filter);
      }
    </style>
    <filter id="filter" x="306" y="3525" width="48" height="50" filterUnits="userSpaceOnUse">
      <feFlood result="flood" flood-color="#fff"/>
      <feComposite result="composite" operator="in" in2="SourceGraphic"/>
      <feBlend result="blend" in2="SourceGraphic"/>
    </filter>
  </defs>
  <path class="cls-1" d="M350.5,3561.07a23.509,23.509,0,0,0-1.712-27.12,23.989,23.989,0,0,0-18.809-8.95,24.269,24.269,0,0,0-14.91,5.14,23.548,23.548,0,0,0-3.853,33.34,24.391,24.391,0,0,0,18.875,8.95,23.887,23.887,0,0,0,7.924-1.34l10.435,3.75a2.667,2.667,0,0,0,.929.16,2.717,2.717,0,0,0,1.709-.6,2.677,2.677,0,0,0,.976-2.46Zm-5.423.39,0.98,6.81-6.864-2.47a4.136,4.136,0,0,0-2.3-.03,18.407,18.407,0,0,1-6.816,1.3h0a18.876,18.876,0,0,1-14.619-6.93,18.22,18.22,0,0,1,2.983-25.8,18.74,18.74,0,0,1,26.1,2.95,18.122,18.122,0,0,1,.836,21.74A2.672,2.672,0,0,0,345.072,3561.46Zm-18.408-27.32a2.757,2.757,0,0,0-1.1.23,18.411,18.411,0,0,0-10.127,11.08,2.618,2.618,0,0,0,.162,2.04,2.722,2.722,0,0,0,5-.38,13.045,13.045,0,0,1,7.164-7.84,2.664,2.664,0,0,0,1.384-3.53A2.719,2.719,0,0,0,326.664,3534.14Z" transform="translate(-306 -3525)"/>
</svg>
