<?xml version="1.0" standalone="no"?>
<!DOCTYPE svg PUBLIC "-//W3C//DTD SVG 20010904//EN"
 "http://www.w3.org/TR/2001/REC-SVG-20010904/DTD/svg10.dtd">
<svg version="1.0" xmlns="http://www.w3.org/2000/svg"
 width="512.000000pt" height="512.000000pt" viewBox="0 0 512.000000 512.000000"
 preserveAspectRatio="xMidYMid meet">
<metadata>
Created by potrace 1.11, written by Peter Selinger 2001-2013
</metadata>
<g transform="translate(0.000000,512.000000) scale(0.100000,-0.100000)"
fill="#000000" stroke="none">
<path d="M879 4615 c-125 -34 -243 -122 -307 -227 -18 -30 -41 -86 -52 -124
-20 -67 -20 -98 -17 -1384 1 -723 5 -1324 9 -1335 4 -11 14 -46 23 -78 76
-284 333 -563 654 -709 36 -16 87 -40 112 -53 43 -21 222 -80 314 -104 88 -22
131 -32 160 -35 17 -3 56 -9 87 -16 32 -6 63 -10 70 -9 7 2 33 0 58 -4 109
-17 206 -21 525 -22 290 0 522 8 584 20 23 4 119 16 167 20 21 2 57 8 78 14
22 5 44 7 48 5 5 -3 15 0 23 6 8 7 21 10 30 7 8 -4 17 -2 19 2 3 5 34 14 68
21 81 17 76 16 126 34 23 8 46 16 50 17 30 7 160 63 257 111 244 121 465 333
565 543 13 28 23 53 22 58 -1 4 2 7 6 7 5 0 9 6 9 13 1 6 12 46 25 87 l23 75
0 1340 0 1340 -22 55 c-38 97 -55 124 -122 191 -72 72 -157 119 -249 138 -82
17 -3280 14 -3343 -4z m3374 -219 c70 -35 117 -88 146 -162 l21 -56 0 -1276
c0 -1266 0 -1276 -21 -1351 -76 -274 -248 -465 -549 -612 -234 -114 -533 -185
-905 -216 -197 -16 -721 -9 -885 12 -19 2 -57 7 -85 10 -27 3 -99 15 -160 26
-395 73 -683 206 -877 405 -98 101 -152 190 -206 337 l-27 72 -3 1280 c-2 903
0 1295 8 1331 22 101 93 181 193 216 49 17 137 17 1672 15 l1620 -2 58 -29z"/>
<path d="M2670 3572 c-45 -3 -46 -4 -60 -50 -7 -26 -35 -114 -61 -197 -160
-504 -341 -1080 -354 -1125 -7 -25 -22 -73 -33 -107 l-20 -63 22 -1 c29 -1
222 -1 272 0 l40 1 21 68 c12 37 47 148 78 247 31 99 77 245 102 325 25 80 63
199 84 265 21 66 61 194 89 285 28 91 64 206 80 255 16 50 27 92 24 94 -4 5
-223 7 -284 3z"/>
<path d="M1750 3038 c-162 -66 -308 -126 -325 -133 -16 -7 -66 -28 -109 -45
-132 -52 -122 -36 -122 -182 l0 -128 66 -26 c36 -14 81 -33 100 -41 19 -8 44
-19 55 -24 11 -4 105 -43 210 -85 104 -42 243 -98 309 -125 65 -27 120 -49
121 -49 2 0 4 67 4 149 l2 149 -273 90 c-150 50 -266 93 -258 96 15 6 389 132
483 163 l47 16 0 149 c0 81 -3 148 -7 147 -5 0 -141 -55 -303 -121z"/>
<path d="M3070 3011 l0 -149 28 -10 c15 -6 130 -45 257 -87 126 -42 234 -79
239 -82 9 -6 -4 -11 -306 -112 l-218 -73 0 -149 c0 -82 2 -149 5 -149 4 0 487
198 550 225 17 7 91 38 165 67 l135 55 2 130 1 131 -91 37 c-51 21 -105 44
-122 51 -16 7 -91 37 -165 67 -74 30 -202 83 -285 117 -82 34 -160 66 -172 71
l-23 9 0 -149z"/>
</g>
</svg>
